999
dxflib 2.2.0.0
  0
SECTION
  2
HEADER
  9
$ACADVER
  1
AC1015
  9
$HANDSEED
  5
FFFF
  9
$DIMASZ
 40
2.5
  9
$GRIDMODE
 70
1
  9
$PLIMMIN
 10
0.0
 20
0.0
  9
$DIMEXE
 40
1.25
  9
$DIMGAP
 40
0.625
  9
$PLIMMAX
 10
210.0
 20
297.0
  9
$INSUNITS
 70
4
  9
$DIMSTYLE
  2
Standard
  9
$DIMEXO
 40
0.625
  9
$DIMTXT
 40
2.5
  0
ENDSEC
  0
SECTION
  2
TABLES
  0
TABLE
  2
VPORT
  5
8
100
AcDbSymbolTable
 70
1
  0
VPORT
  5
30
100
AcDbSymbolTableRecord
100
AcDbViewportTableRecord
  2
*Active
 70
0
 10
0.0
 20
0.0
 11
1.0
 21
1.0
 12
286.30555555555549
 22
148.5
 13
0.0
 23
0.0
 14
10.0
 24
10.0
 15
10.0
 25
10.0
 16
0.0
 26
0.0
 36
1.0
 17
0.0
 27
0.0
 37
0.0
 40
297.0
 41
1.92798353909465
 42
50.0
 43
0.0
 44
0.0
 50
0.0
 51
0.0
 71
0
 72
100
 73
1
 74
3
 75
1
 76
1
 77
0
 78
0
281
0
 65
1
110
0.0
120
0.0
130
0.0
111
1.0
121
0.0
131
0.0
112
0.0
122
1.0
132
0.0
 79
0
146
0.0
  0
ENDTAB
  0
TABLE
  2
LTYPE
  5
5
100
AcDbSymbolTable
 70
21
  0
LTYPE
  5
14
100
AcDbSymbolTableRecord
100
AcDbLinetypeTableRecord
  2
ByBlock
 70
0
  3

 72
65
 73
0
 40
0.0
  0
LTYPE
  5
15
100
AcDbSymbolTableRecord
100
AcDbLinetypeTableRecord
  2
ByLayer
 70
0
  3

 72
65
 73
0
 40
0.0
  0
LTYPE
  5
16
100
AcDbSymbolTableRecord
100
AcDbLinetypeTableRecord
  2
CONTINUOUS
 70
0
  3
Solid line
 72
65
 73
0
 40
0.0
  0
LTYPE
  5
31
100
AcDbSymbolTableRecord
100
AcDbLinetypeTableRecord
  2
DOT
 70
0
  3
Dot . . . . . . . . . . . . . . . . . . . . . .
 72
65
 73
2
 40
6.3499999999999996
 49
0.0
 74
0
 49
-6.3499999999999996
 74
0
  0
LTYPE
  5
32
100
AcDbSymbolTableRecord
100
AcDbLinetypeTableRecord
  2
DOT2
 70
0
  3
Dot (.5x) .....................................
 72
65
 73
2
 40
3.1749999999999998
 49
0.0
 74
0
 49
-3.1749999999999998
 74
0
  0
LTYPE
  5
33
100
AcDbSymbolTableRecord
100
AcDbLinetypeTableRecord
  2
DOTX2
 70
0
  3
Dot (2x) .  .  .  .  .  .  .  .  .  .  .  .  .
 72
65
 73
2
 40
12.699999999999999
 49
0.0
 74
0
 49
-12.699999999999999
 74
0
  0
LTYPE
  5
34
100
AcDbSymbolTableRecord
100
AcDbLinetypeTableRecord
  2
DASHED
 70
0
  3
Dashed __ __ __ __ __ __ __ __ __ __ __ __ __ _
 72
65
 73
2
 40
19.050000000000001
 49
12.699999999999999
 74
0
 49
-6.3499999999999996
 74
0
  0
LTYPE
  5
35
100
AcDbSymbolTableRecord
100
AcDbLinetypeTableRecord
  2
DASHED2
 70
0
  3
Dashed (.5x) _ _ _ _ _ _ _ _ _ _ _ _ _ _ _ _ _
 72
65
 73
2
 40
9.5250000000000004
 49
6.3499999999999996
 74
0
 49
-3.1749999999999998
 74
0
  0
LTYPE
  5
36
100
AcDbSymbolTableRecord
100
AcDbLinetypeTableRecord
  2
DASHEDX2
 70
0
  3
Dashed (2x) ____  ____  ____  ____  ____  ___
 72
65
 73
2
 40
38.100000000000001
 49
25.399999999999999
 74
0
 49
-12.699999999999999
 74
0
  0
LTYPE
  5
37
100
AcDbSymbolTableRecord
100
AcDbLinetypeTableRecord
  2
DASHDOT
 70
0
  3
Dash dot __ . __ . __ . __ . __ . __ . __ . __
 72
65
 73
4
 40
25.399999999999999
 49
12.699999999999999
 74
0
 49
-6.3499999999999996
 74
0
 49
0.0
 74
0
 49
-6.3499999999999996
 74
0
  0
LTYPE
  5
38
100
AcDbSymbolTableRecord
100
AcDbLinetypeTableRecord
  2
DASHDOT2
 70
0
  3
Dash dot (.5x) _._._._._._._._._._._._._._._.
 72
65
 73
4
 40
12.699999999999999
 49
6.3499999999999996
 74
0
 49
-3.1749999999999998
 74
0
 49
0.0
 74
0
 49
-3.1749999999999998
 74
0
  0
LTYPE
  5
39
100
AcDbSymbolTableRecord
100
AcDbLinetypeTableRecord
  2
DASHDOTX2
 70
0
  3
Dash dot (2x) ____  .  ____  .  ____  .  ___
 72
65
 73
4
 40
50.799999999999997
 49
25.399999999999999
 74
0
 49
-12.699999999999999
 74
0
 49
0.0
 74
0
 49
-12.699999999999999
 74
0
  0
LTYPE
  5
3A
100
AcDbSymbolTableRecord
100
AcDbLinetypeTableRecord
  2
DIVIDE
 70
0
  3
Divide ____ . . ____ . . ____ . . ____ . . ____
 72
65
 73
6
 40
31.75
 49
12.699999999999999
 74
0
 49
-6.3499999999999996
 74
0
 49
0.0
 74
0
 49
-6.3499999999999996
 74
0
 49
0.0
 74
0
 49
-6.3499999999999996
 74
0
  0
LTYPE
  5
3B
100
AcDbSymbolTableRecord
100
AcDbLinetypeTableRecord
  2
DIVIDE2
 70
0
  3
Divide (.5x) __..__..__..__..__..__..__..__.._
 72
65
 73
6
 40
15.875
 49
6.3499999999999996
 74
0
 49
-3.1749999999999998
 74
0
 49
0.0
 74
0
 49
-3.1749999999999998
 74
0
 49
0.0
 74
0
 49
-3.1749999999999998
 74
0
  0
LTYPE
  5
3C
100
AcDbSymbolTableRecord
100
AcDbLinetypeTableRecord
  2
DIVIDEX2
 70
0
  3
Divide (2x) ________  .  .  ________  .  .  _
 72
65
 73
6
 40
63.5
 49
25.399999999999999
 74
0
 49
-12.699999999999999
 74
0
 49
0.0
 74
0
 49
-12.699999999999999
 74
0
 49
0.0
 74
0
 49
-12.699999999999999
 74
0
  0
LTYPE
  5
3D
100
AcDbSymbolTableRecord
100
AcDbLinetypeTableRecord
  2
CENTER
 70
0
  3
Center ____ _ ____ _ ____ _ ____ _ ____ _ ____
 72
65
 73
4
 40
50.799999999999997
 49
31.75
 74
0
 49
-6.3499999999999996
 74
0
 49
6.3499999999999996
 74
0
 49
-6.3499999999999996
 74
0
  0
LTYPE
  5
3E
100
AcDbSymbolTableRecord
100
AcDbLinetypeTableRecord
  2
CENTER2
 70
0
  3
Center (.5x) ___ _ ___ _ ___ _ ___ _ ___ _ ___
 72
65
 73
4
 40
28.574999999999999
 49
19.050000000000001
 74
0
 49
-3.1749999999999998
 74
0
 49
3.1749999999999998
 74
0
 49
-3.1749999999999998
 74
0
  0
LTYPE
  5
3F
100
AcDbSymbolTableRecord
100
AcDbLinetypeTableRecord
  2
CENTERX2
 70
0
  3
Center (2x) ________  __  ________  __  _____
 72
65
 73
4
 40
101.59999999999999
 49
63.5
 74
0
 49
-12.699999999999999
 74
0
 49
12.699999999999999
 74
0
 49
-12.699999999999999
 74
0
  0
LTYPE
  5
40
100
AcDbSymbolTableRecord
100
AcDbLinetypeTableRecord
  2
BORDER
 70
0
  3
Border __ __ . __ __ . __ __ . __ __ . __ __ .
 72
65
 73
6
 40
44.450000000000003
 49
12.699999999999999
 74
0
 49
-6.3499999999999996
 74
0
 49
12.699999999999999
 74
0
 49
-6.3499999999999996
 74
0
 49
0.0
 74
0
 49
-6.3499999999999996
 74
0
  0
LTYPE
  5
41
100
AcDbSymbolTableRecord
100
AcDbLinetypeTableRecord
  2
BORDER2
 70
0
  3
Border (.5x) __.__.__.__.__.__.__.__.__.__.__.
 72
65
 73
6
 40
22.225000000000001
 49
6.3499999999999996
 74
0
 49
-3.1749999999999998
 74
0
 49
6.3499999999999996
 74
0
 49
-3.1749999999999998
 74
0
 49
0.0
 74
0
 49
-3.1749999999999998
 74
0
  0
LTYPE
  5
42
100
AcDbSymbolTableRecord
100
AcDbLinetypeTableRecord
  2
BORDERX2
 70
0
  3
Border (2x) ____  ____  .  ____  ____  .  ___
 72
65
 73
6
 40
88.900000000000006
 49
25.399999999999999
 74
0
 49
-12.699999999999999
 74
0
 49
25.399999999999999
 74
0
 49
-12.699999999999999
 74
0
 49
0.0
 74
0
 49
-12.699999999999999
 74
0
  0
ENDTAB
  0
TABLE
  2
LAYER
  5
2
100
AcDbSymbolTable
 70
1
  0
LAYER
  5
10
100
AcDbSymbolTableRecord
100
AcDbLayerTableRecord
  2
0
 70
0
 62
7
  6
CONTINUOUS
370
0
390
F
  0
ENDTAB
  0
TABLE
  2
STYLE
  5
3
100
AcDbSymbolTable
 70
1
  0
STYLE
  5
11
100
AcDbSymbolTableRecord
100
AcDbTextStyleTableRecord
  2
Standard
 70
0
 40
0.0
 41
0.75
 50
0.0
 71
0
 42
2.5
  3
txt
  4

  0
ENDTAB
  0
TABLE
  2
VIEW
  5
6
100
AcDbSymbolTable
 70
0
  0
ENDTAB
  0
TABLE
  2
UCS
  5
7
100
AcDbSymbolTable
 70
0
  0
ENDTAB
  0
TABLE
  2
APPID
  5
9
100
AcDbSymbolTable
 70
1
  0
APPID
  5
12
100
AcDbSymbolTableRecord
100
AcDbRegAppTableRecord
  2
ACAD
 70
0
  0
ENDTAB
  0
TABLE
  2
DIMSTYLE
  5
A
100
AcDbSymbolTable
 70
1
100
AcDbDimStyleTable
 71
0
  0
DIMSTYLE
105
27
100
AcDbSymbolTableRecord
100
AcDbDimStyleTableRecord
  2
Standard
 41
2.5
 42
0.625
 43
3.75
 44
1.25
 70
0
 73
0
 74
0
 77
1
 78
8
140
2.5
141
2.5
143
0.03937007874016
147
0.625
171
3
172
1
271
2
272
2
274
3
278
44
283
0
284
8
340
11
  0
ENDTAB
  0
TABLE
  2
BLOCK_RECORD
  5
1
100
AcDbSymbolTable
 70
1
  0
BLOCK_RECORD
  5
1F
100
AcDbSymbolTableRecord
100
AcDbBlockTableRecord
  2
*Model_Space
340
22
  0
BLOCK_RECORD
  5
1B
100
AcDbSymbolTableRecord
100
AcDbBlockTableRecord
  2
*Paper_Space
340
1E
  0
BLOCK_RECORD
  5
23
100
AcDbSymbolTableRecord
100
AcDbBlockTableRecord
  2
*Paper_Space0
340
26
  0
ENDTAB
  0
ENDSEC
  0
SECTION
  2
BLOCKS
  0
BLOCK
  5
20
100
AcDbEntity
  8
0
100
AcDbBlockBegin
  2
*Model_Space
 70
0
 10
0.0
 20
0.0
 30
0.0
  3
*Model_Space
  1

  0
ENDBLK
  5
21
100
AcDbEntity
  8
0
100
AcDbBlockEnd
  0
BLOCK
  5
1C
100
AcDbEntity
 67
1
  8
0
100
AcDbBlockBegin
  2
*Paper_Space
 70
0
 10
0.0
 20
0.0
 30
0.0
  3
*Paper_Space
  1

  0
ENDBLK
  5
1D
100
AcDbEntity
 67
1
  8
0
100
AcDbBlockEnd
  0
BLOCK
  5
24
100
AcDbEntity
  8
0
100
AcDbBlockBegin
  2
*Paper_Space0
 70
0
 10
0.0
 20
0.0
 30
0.0
  3
*Paper_Space0
  1

  0
ENDBLK
  5
25
100
AcDbEntity
  8
0
100
AcDbBlockEnd
  0
ENDSEC
  0
SECTION
  2
ENTITIES
  0
IMAGE
  5
43
  8
0
 62
5
370
200
  6
CONTINUOUS
100
AcDbEntity
100
AcDbRasterImage
 90
0
 10
100.0
 20
100.0
 30
0.0
 11
1.0
 21
0.0
 31
0.0
 12
0.0000000000000001
 22
1.0
 32
0.0
 13
488.0
 23
202.0
340
44
 70
15
280
0
281
50
282
50
283
0
  0
LINE
  5
45
100
AcDbEntity
100
AcDbLine
  8
0
 62
5
370
200
  6
CONTINUOUS
 10
420.0
 20
450.0
 30
0.0
 11
480.0
 21
450.0
 31
0.0
  0
LINE
  5
46
100
AcDbEntity
100
AcDbLine
  8
0
 62
5
370
200
  6
CONTINUOUS
 10
480.0
 20
450.0
 30
0.0
 11
480.0
 21
430.0
 31
0.0
  0
LINE
  5
47
100
AcDbEntity
100
AcDbLine
  8
0
 62
5
370
200
  6
CONTINUOUS
 10
480.0
 20
430.0
 30
0.0
 11
420.0
 21
430.0
 31
0.0
  0
LINE
  5
48
100
AcDbEntity
100
AcDbLine
  8
0
 62
5
370
200
  6
CONTINUOUS
 10
420.0
 20
430.0
 30
0.0
 11
420.0
 21
450.0
 31
0.0
  0
LINE
  5
49
100
AcDbEntity
100
AcDbLine
  8
0
 62
5
370
200
  6
CONTINUOUS
 10
480.0
 20
390.0
 30
0.0
 11
420.0
 21
390.0
 31
0.0
  0
LINE
  5
4A
100
AcDbEntity
100
AcDbLine
  8
0
 62
5
370
200
  6
CONTINUOUS
 10
420.0
 20
390.0
 30
0.0
 11
420.0
 21
410.0
 31
0.0
  0
LINE
  5
4B
100
AcDbEntity
100
AcDbLine
  8
0
 62
5
370
200
  6
CONTINUOUS
 10
420.0
 20
410.0
 30
0.0
 11
480.0
 21
410.0
 31
0.0
  0
LINE
  5
4C
100
AcDbEntity
100
AcDbLine
  8
0
 62
5
370
200
  6
CONTINUOUS
 10
480.0
 20
410.0
 30
0.0
 11
480.0
 21
390.0
 31
0.0
  0
LINE
  5
4D
100
AcDbEntity
100
AcDbLine
  8
0
 62
5
370
200
  6
CONTINUOUS
 10
420.0
 20
370.0
 30
0.0
 11
480.0
 21
370.0
 31
0.0
  0
LINE
  5
4E
100
AcDbEntity
100
AcDbLine
  8
0
 62
5
370
200
  6
CONTINUOUS
 10
480.0
 20
370.0
 30
0.0
 11
480.0
 21
350.0
 31
0.0
  0
LINE
  5
4F
100
AcDbEntity
100
AcDbLine
  8
0
 62
5
370
200
  6
CONTINUOUS
 10
480.0
 20
350.0
 30
0.0
 11
420.0
 21
350.0
 31
0.0
  0
LINE
  5
50
100
AcDbEntity
100
AcDbLine
  8
0
 62
5
370
200
  6
CONTINUOUS
 10
420.0
 20
350.0
 30
0.0
 11
420.0
 21
370.0
 31
0.0
  0
LINE
  5
51
100
AcDbEntity
100
AcDbLine
  8
0
 62
5
370
200
  6
CONTINUOUS
 10
500.0
 20
450.0
 30
0.0
 11
560.0
 21
450.0
 31
0.0
  0
LINE
  5
52
100
AcDbEntity
100
AcDbLine
  8
0
 62
5
370
200
  6
CONTINUOUS
 10
560.0
 20
450.0
 30
0.0
 11
560.0
 21
430.0
 31
0.0
  0
LINE
  5
53
100
AcDbEntity
100
AcDbLine
  8
0
 62
5
370
200
  6
CONTINUOUS
 10
560.0
 20
430.0
 30
0.0
 11
500.0
 21
430.0
 31
0.0
  0
LINE
  5
54
100
AcDbEntity
100
AcDbLine
  8
0
 62
5
370
200
  6
CONTINUOUS
 10
500.0
 20
430.0
 30
0.0
 11
500.0
 21
450.0
 31
0.0
  0
LINE
  5
55
100
AcDbEntity
100
AcDbLine
  8
0
 62
5
370
200
  6
CONTINUOUS
 10
500.0
 20
410.0
 30
0.0
 11
560.0
 21
410.0
 31
0.0
  0
LINE
  5
56
100
AcDbEntity
100
AcDbLine
  8
0
 62
5
370
200
  6
CONTINUOUS
 10
560.0
 20
410.0
 30
0.0
 11
560.0
 21
390.0
 31
0.0
  0
LINE
  5
57
100
AcDbEntity
100
AcDbLine
  8
0
 62
5
370
200
  6
CONTINUOUS
 10
560.0
 20
390.0
 30
0.0
 11
500.0
 21
390.0
 31
0.0
  0
LINE
  5
58
100
AcDbEntity
100
AcDbLine
  8
0
 62
5
370
200
  6
CONTINUOUS
 10
500.0
 20
390.0
 30
0.0
 11
500.0
 21
410.0
 31
0.0
  0
LINE
  5
59
100
AcDbEntity
100
AcDbLine
  8
0
 62
5
370
200
  6
CONTINUOUS
 10
500.0
 20
370.0
 30
0.0
 11
560.0
 21
370.0
 31
0.0
  0
LINE
  5
5A
100
AcDbEntity
100
AcDbLine
  8
0
 62
5
370
200
  6
CONTINUOUS
 10
560.0
 20
370.0
 30
0.0
 11
560.0
 21
350.0
 31
0.0
  0
LINE
  5
5B
100
AcDbEntity
100
AcDbLine
  8
0
 62
5
370
200
  6
CONTINUOUS
 10
560.0
 20
350.0
 30
0.0
 11
500.0
 21
350.0
 31
0.0
  0
LINE
  5
5C
100
AcDbEntity
100
AcDbLine
  8
0
 62
5
370
200
  6
CONTINUOUS
 10
500.0
 20
350.0
 30
0.0
 11
500.0
 21
370.0
 31
0.0
  0
LINE
  5
5D
100
AcDbEntity
100
AcDbLine
  8
0
 62
5
370
200
  6
CONTINUOUS
 10
480.0
 20
440.0
 30
0.0
 11
500.0
 21
440.0
 31
0.0
  0
LINE
  5
5E
100
AcDbEntity
100
AcDbLine
  8
0
 62
5
370
200
  6
CONTINUOUS
 10
480.0
 20
400.0
 30
0.0
 11
500.0
 21
400.0
 31
0.0
  0
LINE
  5
5F
100
AcDbEntity
100
AcDbLine
  8
0
 62
5
370
200
  6
CONTINUOUS
 10
480.0
 20
360.0
 30
0.0
 11
500.0
 21
360.0
 31
0.0
  0
LINE
  5
60
100
AcDbEntity
100
AcDbLine
  8
0
 62
5
370
200
  6
CONTINUOUS
 10
420.0
 20
440.0
 30
0.0
 11
400.0
 21
440.0
 31
0.0
  0
LINE
  5
61
100
AcDbEntity
100
AcDbLine
  8
0
 62
5
370
200
  6
CONTINUOUS
 10
420.0
 20
400.0
 30
0.0
 11
400.0
 21
400.0
 31
0.0
  0
LINE
  5
62
100
AcDbEntity
100
AcDbLine
  8
0
 62
5
370
200
  6
CONTINUOUS
 10
420.0
 20
360.0
 30
0.0
 11
400.0
 21
360.0
 31
0.0
  0
CIRCLE
  5
63
100
AcDbEntity
100
AcDbCircle
  8
0
 62
5
370
200
  6
CONTINUOUS
 10
400.0
 20
400.0
 30
0.0
 40
2.0
  0
CIRCLE
  5
64
100
AcDbEntity
100
AcDbCircle
  8
0
 62
5
370
200
  6
CONTINUOUS
 10
400.0
 20
360.0
 30
0.0
 40
2.0
  0
LINE
  5
65
100
AcDbEntity
100
AcDbLine
  8
0
 62
5
370
200
  6
CONTINUOUS
 10
560.0
 20
440.0
 30
0.0
 11
590.0
 21
440.0
 31
0.0
  0
LINE
  5
66
100
AcDbEntity
100
AcDbLine
  8
0
 62
5
370
200
  6
CONTINUOUS
 10
560.0
 20
400.0
 30
0.0
 11
590.0
 21
400.0
 31
0.0
  0
LINE
  5
67
100
AcDbEntity
100
AcDbLine
  8
0
 62
5
370
200
  6
CONTINUOUS
 10
560.0
 20
360.0
 30
0.0
 11
590.0
 21
360.0
 31
0.0
  0
MTEXT
  5
68
100
AcDbEntity
100
AcDbMText
  8
0
 62
5
370
200
  6
CONTINUOUS
 10
600.0
 20
410.0
 30
0.0
 40
10.0
 41
100.0
 71
1
 72
2
  1
current sensor
  7
standard
 50
0.0
 73
1
 44
1.0
  0
MTEXT
  5
69
100
AcDbEntity
100
AcDbMText
  8
0
 62
5
370
200
  6
CONTINUOUS
 10
600.0
 20
370.0
 30
0.0
 40
10.0
 41
100.0
 71
1
 72
2
  1
voltage sensor
  7
standard
 50
0.0
 73
1
 44
1.0
  0
LINE
  5
6A
100
AcDbEntity
100
AcDbLine
  8
0
 62
5
370
200
  6
CONTINUOUS
 10
490.0
 20
440.0
 30
0.0
 11
490.0
 21
420.0
 31
0.0
  0
LINE
  5
6B
100
AcDbEntity
100
AcDbLine
  8
0
 62
5
370
200
  6
CONTINUOUS
 10
490.0
 20
420.0
 30
0.0
 11
340.0
 21
420.0
 31
0.0
  0
LINE
  5
6C
100
AcDbEntity
100
AcDbLine
  8
0
 62
5
370
200
  6
CONTINUOUS
 10
490.0
 20
400.0
 30
0.0
 11
490.0
 21
380.0
 31
0.0
  0
LINE
  5
6D
100
AcDbEntity
100
AcDbLine
  8
0
 62
5
370
200
  6
CONTINUOUS
 10
490.0
 20
380.0
 30
0.0
 11
340.0
 21
380.0
 31
0.0
  0
LINE
  5
6E
100
AcDbEntity
100
AcDbLine
  8
0
 62
5
370
200
  6
CONTINUOUS
 10
490.0
 20
360.0
 30
0.0
 11
490.0
 21
340.0
 31
0.0
  0
LINE
  5
6F
100
AcDbEntity
100
AcDbLine
  8
0
 62
5
370
200
  6
CONTINUOUS
 10
490.0
 20
340.0
 30
0.0
 11
340.0
 21
340.0
 31
0.0
  0
LINE
  5
70
100
AcDbEntity
100
AcDbLine
  8
0
 62
5
370
200
  6
CONTINUOUS
 10
340.0
 20
340.0
 30
0.0
 11
264.3968000000072
 21
228.35200000000623
 31
0.0
  0
LINE
  5
71
100
AcDbEntity
100
AcDbLine
  8
0
 62
5
370
200
  6
CONTINUOUS
 10
340.0
 20
380.0
 30
0.0
 11
246.16960000000671
 21
247.50080000000676
 31
0.0
  0
LINE
  5
72
100
AcDbEntity
100
AcDbLine
  8
0
 62
5
370
200
  6
CONTINUOUS
 10
400.0
 20
440.0
 30
0.0
 11
400.0
 21
320.0
 31
0.0
  0
LINE
  5
73
100
AcDbEntity
100
AcDbLine
  8
0
 62
5
370
200
  6
CONTINUOUS
 10
390.0
 20
320.0
 30
0.0
 11
410.0
 21
320.0
 31
0.0
  0
LINE
  5
74
100
AcDbEntity
100
AcDbLine
  8
0
 62
5
370
200
  6
CONTINUOUS
 10
100.0
 20
420.0
 30
0.0
 11
120.0
 21
420.0
 31
0.0
  0
LINE
  5
75
100
AcDbEntity
100
AcDbLine
  8
0
 62
5
370
200
  6
CONTINUOUS
 10
120.0
 20
420.0
 30
0.0
 11
120.0
 21
360.0
 31
0.0
  0
LINE
  5
76
100
AcDbEntity
100
AcDbLine
  8
0
 62
5
370
200
  6
CONTINUOUS
 10
120.0
 20
360.0
 30
0.0
 11
100.0
 21
360.0
 31
0.0
  0
LINE
  5
77
100
AcDbEntity
100
AcDbLine
  8
0
 62
5
370
200
  6
CONTINUOUS
 10
100.0
 20
360.0
 30
0.0
 11
100.0
 21
420.0
 31
0.0
  0
LINE
  5
78
100
AcDbEntity
100
AcDbLine
  8
0
 62
5
370
200
  6
CONTINUOUS
 10
160.0
 20
420.0
 30
0.0
 11
160.0
 21
360.0
 31
0.0
  0
LINE
  5
79
100
AcDbEntity
100
AcDbLine
  8
0
 62
5
370
200
  6
CONTINUOUS
 10
160.0
 20
360.0
 30
0.0
 11
140.0
 21
360.0
 31
0.0
  0
LINE
  5
7A
100
AcDbEntity
100
AcDbLine
  8
0
 62
5
370
200
  6
CONTINUOUS
 10
140.0
 20
360.0
 30
0.0
 11
140.0
 21
420.0
 31
0.0
  0
LINE
  5
7B
100
AcDbEntity
100
AcDbLine
  8
0
 62
5
370
200
  6
CONTINUOUS
 10
180.0
 20
420.0
 30
0.0
 11
200.0
 21
420.0
 31
0.0
  0
LINE
  5
7C
100
AcDbEntity
100
AcDbLine
  8
0
 62
5
370
200
  6
CONTINUOUS
 10
200.0
 20
420.0
 30
0.0
 11
200.0
 21
360.0
 31
0.0
  0
LINE
  5
7D
100
AcDbEntity
100
AcDbLine
  8
0
 62
5
370
200
  6
CONTINUOUS
 10
200.0
 20
360.0
 30
0.0
 11
180.0
 21
360.0
 31
0.0
  0
LINE
  5
7E
100
AcDbEntity
100
AcDbLine
  8
0
 62
5
370
200
  6
CONTINUOUS
 10
180.0
 20
360.0
 30
0.0
 11
180.0
 21
420.0
 31
0.0
  0
LINE
  5
7F
100
AcDbEntity
100
AcDbLine
  8
0
 62
5
370
200
  6
CONTINUOUS
 10
110.0
 20
420.0
 30
0.0
 11
110.0
 21
420.0
 31
0.0
  0
LINE
  5
80
100
AcDbEntity
100
AcDbLine
  8
0
 62
5
370
200
  6
CONTINUOUS
 10
110.0
 20
420.0
 30
0.0
 11
110.0
 21
440.0
 31
0.0
  0
LINE
  5
81
100
AcDbEntity
100
AcDbLine
  8
0
 62
5
370
200
  6
CONTINUOUS
 10
110.0
 20
440.0
 30
0.0
 11
110.0
 21
440.0
 31
0.0
  0
LINE
  5
82
100
AcDbEntity
100
AcDbLine
  8
0
 62
5
370
200
  6
CONTINUOUS
 10
110.0
 20
440.0
 30
0.0
 11
110.0
 21
420.0
 31
0.0
  0
LINE
  5
83
100
AcDbEntity
100
AcDbLine
  8
0
 62
5
370
200
  6
CONTINUOUS
 10
150.0
 20
420.0
 30
0.0
 11
150.0
 21
440.0
 31
0.0
  0
LINE
  5
84
100
AcDbEntity
100
AcDbLine
  8
0
 62
5
370
200
  6
CONTINUOUS
 10
190.0
 20
420.0
 30
0.0
 11
190.0
 21
440.0
 31
0.0
  0
LINE
  5
85
100
AcDbEntity
100
AcDbLine
  8
0
 62
5
370
200
  6
CONTINUOUS
 10
140.0
 20
420.0
 30
0.0
 11
160.0
 21
420.0
 31
0.0
  0
MTEXT
  5
86
100
AcDbEntity
100
AcDbMText
  8
0
 62
5
370
200
  6
CONTINUOUS
 10
600.0
 20
450.0
 30
0.0
 40
10.0
 41
100.0
 71
1
 72
2
  1
RSSI at RC-RX
  7
standard
 50
0.0
 73
1
 44
1.0
  0
CIRCLE
  5
87
100
AcDbEntity
100
AcDbCircle
  8
0
 62
5
370
200
  6
CONTINUOUS
 10
490.0
 20
400.0
 30
0.0
 40
2.0
  0
CIRCLE
  5
88
100
AcDbEntity
100
AcDbCircle
  8
0
 62
5
370
200
  6
CONTINUOUS
 10
490.0
 20
440.0
 30
0.0
 40
2.0
  0
CIRCLE
  5
89
100
AcDbEntity
100
AcDbCircle
  8
0
 62
5
370
200
  6
CONTINUOUS
 10
490.0
 20
360.0
 30
0.0
 40
2.0
  0
MTEXT
  5
8A
100
AcDbEntity
100
AcDbMText
  8
0
 62
5
370
200
  6
CONTINUOUS
 10
100.0
 20
460.0
 30
0.0
 40
10.0
 41
100.0
 71
1
 72
2
  1
LED adaptor at NAZA
  7
standard
 50
0.0
 73
1
 44
1.0
  0
LINE
  5
8B
100
AcDbEntity
100
AcDbLine
  8
0
 62
5
370
200
  6
CONTINUOUS
 10
110.0
 20
340.0
 30
0.0
 11
190.0
 21
340.0
 31
0.0
  0
LINE
  5
8C
100
AcDbEntity
100
AcDbLine
  8
0
 62
5
370
200
  6
CONTINUOUS
 10
150.0
 20
360.0
 30
0.0
 11
150.0
 21
340.0
 31
0.0
  0
LINE
  5
8D
100
AcDbEntity
100
AcDbLine
  8
0
 62
5
370
200
  6
CONTINUOUS
 10
203.90600000000001
 20
260.15600000000001
 30
0.0
 11
150.0
 21
340.0
 31
0.0
  0
CIRCLE
  5
8E
100
AcDbEntity
100
AcDbCircle
  8
0
 62
5
370
200
  6
CONTINUOUS
 10
150.0
 20
340.0
 30
0.0
 40
2.0
  0
LINE
  5
8F
100
AcDbEntity
100
AcDbLine
  8
0
 62
5
370
200
  6
CONTINUOUS
 10
190.0
 20
340.0
 30
0.0
 11
190.0
 21
360.0
 31
0.0
  0
LINE
  5
90
100
AcDbEntity
100
AcDbLine
  8
0
 62
5
370
200
  6
CONTINUOUS
 10
110.0
 20
360.0
 30
0.0
 11
110.0
 21
340.0
 31
0.0
  0
LINE
  5
91
100
AcDbEntity
100
AcDbLine
  8
0
 62
5
370
200
  6
CONTINUOUS
 10
340.0
 20
420.0
 30
0.0
 11
233.16499999999999
 21
260.096
 31
0.0
  0
LINE
  5
92
100
AcDbEntity
100
AcDbLine
  8
0
 62
7
370
-1
  6
ByLayer
 10
119.86125499058382
 20
157.09890169491541
 30
0.0
 11
119.86125499058382
 21
157.09890169491541
 31
0.0
  0
LINE
  5
93
100
AcDbEntity
100
AcDbLine
  8
0
 62
7
370
200
  6
CONTINUOUS
 10
119.86125499058382
 20
157.09890169491541
 30
0.0
 11
79.861254990583816
 21
157.09890169491541
 31
0.0
  0
LINE
  5
94
100
AcDbEntity
100
AcDbLine
  8
0
 62
1
370
200
  6
CONTINUOUS
 10
119.86125499058382
 20
187.09890169491541
 30
0.0
 11
79.861254990583816
 21
187.09890169491541
 31
0.0
  0
LINE
  5
95
100
AcDbEntity
100
AcDbLine
  8
0
 62
2
370
200
  6
CONTINUOUS
 10
119.86125499058382
 20
217.09890169491541
 30
0.0
 11
79.861254990583816
 21
217.09890169491541
 31
0.0
  0
MTEXT
  5
96
100
AcDbEntity
100
AcDbMText
  8
0
 62
5
370
100
  6
CONTINUOUS
 10
440.0
 20
440.0
 30
0.0
 40
10.0
 41
100.0
 71
4
 72
2
  1
4k7
  7
standard
 50
0.0
 73
1
 44
1.0
  0
MTEXT
  5
97
100
AcDbEntity
100
AcDbMText
  8
0
 62
5
370
100
  6
CONTINUOUS
 10
440.0
 20
400.0
 30
0.0
 40
10.0
 41
100.0
 71
4
 72
2
  1
4k7
  7
standard
 50
0.0
 73
1
 44
1.0
  0
MTEXT
  5
98
100
AcDbEntity
100
AcDbMText
  8
0
 62
5
370
100
  6
CONTINUOUS
 10
440.0
 20
360.0
 30
0.0
 40
10.0
 41
100.0
 71
4
 72
2
  1
4k7
  7
standard
 50
0.0
 73
1
 44
1.0
  0
MTEXT
  5
99
100
AcDbEntity
100
AcDbMText
  8
0
 62
5
370
100
  6
CONTINUOUS
 10
520.0
 20
440.0
 30
0.0
 40
10.0
 41
100.0
 71
4
 72
2
  1
10k
  7
standard
 50
0.0
 73
1
 44
1.0
  0
MTEXT
  5
9A
100
AcDbEntity
100
AcDbMText
  8
0
 62
5
370
100
  6
CONTINUOUS
 10
520.0
 20
400.0
 30
0.0
 40
10.0
 41
100.0
 71
4
 72
2
  1
10k
  7
standard
 50
0.0
 73
1
 44
1.0
  0
MTEXT
  5
9B
100
AcDbEntity
100
AcDbMText
  8
0
 62
5
370
100
  6
CONTINUOUS
 10
520.0
 20
360.0
 30
0.0
 40
10.0
 41
100.0
 71
4
 72
2
  1
10k
  7
standard
 50
0.0
 73
1
 44
1.0
  0
MTEXT
  5
9C
100
AcDbEntity
100
AcDbMText
  8
0
 62
5
370
100
  6
CONTINUOUS
 10
110.0
 20
380.0
 30
0.0
 40
10.0
 41
100.0
 71
4
 72
2
  1
100k
  7
standard
 50
90.0
 73
1
 44
1.0
  0
MTEXT
  5
9D
100
AcDbEntity
100
AcDbMText
  8
0
 62
5
370
100
  6
CONTINUOUS
 10
150.0
 20
380.0
 30
0.0
 40
10.0
 41
100.0
 71
4
 72
2
  1
200k
  7
standard
 50
90.0
 73
1
 44
1.0
  0
LINE
  5
9E
100
AcDbEntity
100
AcDbLine
  8
0
 62
7
370
100
  6
CONTINUOUS
 10
-10.0
 20
-10.0
 30
0.0
 11
720.0
 21
-10.0
 31
0.0
  0
LINE
  5
9F
100
AcDbEntity
100
AcDbLine
  8
0
 62
7
370
100
  6
CONTINUOUS
 10
720.0
 20
-10.0
 30
0.0
 11
720.0
 21
480.0
 31
0.0
  0
LINE
  5
A0
100
AcDbEntity
100
AcDbLine
  8
0
 62
7
370
100
  6
CONTINUOUS
 10
720.0
 20
480.0
 30
0.0
 11
-10.0
 21
480.0
 31
0.0
  0
LINE
  5
A1
100
AcDbEntity
100
AcDbLine
  8
0
 62
7
370
100
  6
CONTINUOUS
 10
-10.0
 20
480.0
 30
0.0
 11
-10.0
 21
-10.0
 31
0.0
  0
MTEXT
  5
A2
100
AcDbEntity
100
AcDbMText
  8
0
 62
7
370
200
  6
CONTINUOUS
 10
9.8612549905838112
 20
197.09890169491541
 30
0.0
 40
10.0
 41
100.0
 71
1
 72
2
  1
NAZA +5V
  7
standard
 50
0.0
 73
1
 44
1.0
  0
MTEXT
  5
A3
100
AcDbEntity
100
AcDbMText
  8
0
 62
7
370
200
  6
CONTINUOUS
 10
9.8612549905838112
 20
167.09890169491541
 30
0.0
 40
10.0
 41
100.0
 71
1
 72
2
  1
NAZA GND
  7
standard
 50
0.0
 73
1
 44
1.0
  0
MTEXT
  5
A4
100
AcDbEntity
100
AcDbMText
  8
0
 62
7
370
200
  6
CONTINUOUS
 10
9.8612549905838112
 20
227.09890169491541
 30
0.0
 40
10.0
 41
100.0
 71
1
 72
2
  1
GPS signal
  7
standard
 50
0.0
 73
1
 44
1.0
  0
MTEXT
  5
A5
100
AcDbEntity
100
AcDbMText
  8
0
 62
5
370
100
  6
CONTINUOUS
 10
190.0
 20
380.0
 30
0.0
 40
10.0
 41
100.0
 71
4
 72
2
  1
47k
  7
standard
 50
90.0
 73
1
 44
1.0
  0
LINE
  5
A6
100
AcDbEntity
100
AcDbLine
  8
0
 62
5
370
200
  6
CONTINUOUS
 10
259.072
 20
168.31999999999999
 30
0.0
 11
360.0
 21
80.0
 31
0.0
  0
LINE
  5
A7
100
AcDbEntity
100
AcDbLine
  8
0
 62
5
370
200
  6
CONTINUOUS
 10
252.81299999999999
 20
161.875
 30
0.0
 11
360.0
 21
60.0
 31
0.0
  0
LINE
  5
A8
100
AcDbEntity
100
AcDbLine
  8
0
 62
5
370
200
  6
CONTINUOUS
 10
246.56299999999999
 20
155.625
 30
0.0
 11
360.0
 21
40.0
 31
0.0
  0
MTEXT
  5
A9
100
AcDbEntity
100
AcDbMText
  8
0
 62
5
370
200
  6
CONTINUOUS
 10
370.0
 20
85.0
 30
0.0
 40
10.0
 41
100.0
 71
1
 72
2
  1
gimbal F1 at NAZA
  7
standard
 50
0.0
 73
1
 44
1.0
  0
MTEXT
  5
AA
100
AcDbEntity
100
AcDbMText
  8
0
 62
5
370
200
  6
CONTINUOUS
 10
370.0
 20
65.0
 30
0.0
 40
10.0
 41
100.0
 71
1
 72
2
  1
screenswitch at RC-RX
  7
standard
 50
0.0
 73
1
 44
1.0
  0
MTEXT
  5
AB
100
AcDbEntity
100
AcDbMText
  8
0
 62
5
370
200
  6
CONTINUOUS
 10
370.0
 20
45.0
 30
0.0
 40
10.0
 41
100.0
 71
1
 72
2
  1
throttle at RC-RX
  7
standard
 50
0.0
 73
1
 44
1.0
  0
MTEXT
  5
AC
100
AcDbEntity
100
AcDbMText
  8
0
 62
5
370
200
  6
CONTINUOUS
 10
370.0
 20
25.0
 30
0.0
 40
10.0
 41
100.0
 71
1
 72
2
  1
gimbal F2 at NAZA
  7
standard
 50
0.0
 73
1
 44
1.0
  0
LWPOLYLINE
  5
AD
  8
0
 62
5
370
200
  6
CONTINUOUS
100
AcDbEntity
100
AcDbPolyline
 90
4
 70
0
 10
360.0
 20
20.0
 10
220.0
 20
90.0
 10
160.0
 20
170.0
 10
165.48905766526025
 20
179.95611814345997
  0
ENDSEC
  0
SECTION
  2
OBJECTS
  0
DICTIONARY
  5
C
100
AcDbDictionary
280
0
281
1
  3
ACAD_GROUP
350
D
  3
ACAD_LAYOUT
350
1A
  3
ACAD_MLINESTYLE
350
17
  3
ACAD_PLOTSETTINGS
350
19
  3
ACAD_PLOTSTYLENAME
350
E
  3
AcDbVariableDictionary
350
AE
  0
DICTIONARY
  5
D
100
AcDbDictionary
280
0
281
1
  0
ACDBDICTIONARYWDFLT
  5
E
100
AcDbDictionary
281
1
  3
Normal
350
F
100
AcDbDictionaryWithDefault
340
F
  0
ACDBPLACEHOLDER
  5
F
  0
DICTIONARY
  5
17
100
AcDbDictionary
280
0
281
1
  3
Standard
350
18
  0
MLINESTYLE
  5
18
100
AcDbMlineStyle
  2
STANDARD
 70
0
  3

 62
256
 51
90.0
 52
90.0
 71
2
 49
0.5
 62
256
  6
BYLAYER
 49
-0.5
 62
256
  6
BYLAYER
  0
DICTIONARY
  5
19
100
AcDbDictionary
280
0
281
1
  0
DICTIONARY
  5
1A
100
AcDbDictionary
281
1
  3
Layout1
350
1E
  3
Layout2
350
26
  3
Model
350
22
  0
LAYOUT
  5
1E
100
AcDbPlotSettings
  1

  2
C:\Program Files\AutoCAD 2002\plotters\DWF ePlot (optimized for plotting).pc3
  4

  6

 40
0.0
 41
0.0
 42
0.0
 43
0.0
 44
0.0
 45
0.0
 46
0.0
 47
0.0
 48
0.0
 49
0.0
140
0.0
141
0.0
142
1.0
143
1.0
 70
688
 72
0
 73
0
 74
5
  7

 75
16
147
1.0
148
0.0
149
0.0
100
AcDbLayout
  1
Layout1
 70
1
 71
1
 10
0.0
 20
0.0
 11
420.0
 21
297.0
 12
0.0
 22
0.0
 32
0.0
 14
100000000000000000000.0
 24
100000000000000000000.0
 34
100000000000000000000.0
 15
-100000000000000000000.0
 25
-100000000000000000000.0
 35
-100000000000000000000.0
146
0.0
 13
0.0
 23
0.0
 33
0.0
 16
1.0
 26
0.0
 36
0.0
 17
0.0
 27
1.0
 37
0.0
 76
0
330
1B
  0
LAYOUT
  5
22
100
AcDbPlotSettings
  1

  2
C:\Program Files\AutoCAD 2002\plotters\DWF ePlot (optimized for plotting).pc3
  4

  6

 40
0.0
 41
0.0
 42
0.0
 43
0.0
 44
0.0
 45
0.0
 46
0.0
 47
0.0
 48
0.0
 49
0.0
140
0.0
141
0.0
142
1.0
143
1.0
 70
1712
 72
0
 73
0
 74
0
  7

 75
0
147
1.0
148
0.0
149
0.0
100
AcDbLayout
  1
Model
 70
1
 71
0
 10
0.0
 20
0.0
 11
12.0
 21
9.0
 12
0.0
 22
0.0
 32
0.0
 14
0.0
 24
0.0
 34
0.0
 15
0.0
 25
0.0
 35
0.0
146
0.0
 13
0.0
 23
0.0
 33
0.0
 16
1.0
 26
0.0
 36
0.0
 17
0.0
 27
1.0
 37
0.0
 76
0
330
1F
  0
LAYOUT
  5
26
100
AcDbPlotSettings
  1

  2
C:\Program Files\AutoCAD 2002\plotters\DWF ePlot (optimized for plotting).pc3
  4

  6

 40
0.0
 41
0.0
 42
0.0
 43
0.0
 44
0.0
 45
0.0
 46
0.0
 47
0.0
 48
0.0
 49
0.0
140
0.0
141
0.0
142
1.0
143
1.0
 70
688
 72
0
 73
0
 74
5
  7

 75
16
147
1.0
148
0.0
149
0.0
100
AcDbLayout
  1
Layout2
 70
1
 71
2
 10
0.0
 20
0.0
 11
12.0
 21
9.0
 12
0.0
 22
0.0
 32
0.0
 14
0.0
 24
0.0
 34
0.0
 15
0.0
 25
0.0
 35
0.0
146
0.0
 13
0.0
 23
0.0
 33
0.0
 16
1.0
 26
0.0
 36
0.0
 17
0.0
 27
1.0
 37
0.0
 76
0
330
23
  0
DICTIONARY
  5
AE
100
AcDbDictionary
281
1
  3
DIMASSOC
350
B0
  3
HIDETEXT
350
AF
  0
DICTIONARYVAR
  5
AF
100
DictionaryVariables
280
0
  1
2
  0
DICTIONARYVAR
  5
B0
100
DictionaryVariables
280
0
  1
1
  0
IMAGEDEF
  5
44
100
AcDbRasterImageDef
 90
0
  1
E:/OP_minXYOSD_APM/minNAZAOSD_Sammlung/Ideen/pics/DiagrammMinimOSD_PCB_001.jpg
 10
488.0
 20
202.0
 11
1.0
 21
1.0
280
1
281
0
  0
ENDSEC
  0
EOF
